<mxfile host="app.diagrams.net" modified="2021-02-10T19:56:29.915Z" agent="5.0 (Windows NT 10.0) AppleWebKit/537.36 (KHTML, like Gecko) Chrome/88.0.4324.150 Safari/537.36" etag="ZGM5Z3lTzHuqcg44syIq" version="14.3.0" type="github">
  <diagram id="MJO0uqMn0sKsIGN43t9J" name="Page-1">
    <mxGraphModel dx="1108" dy="450" grid="1" gridSize="10" guides="1" tooltips="1" connect="1" arrows="1" fold="1" page="1" pageScale="1" pageWidth="827" pageHeight="1169" math="0" shadow="0">
      <root>
        <mxCell id="0" />
        <mxCell id="1" parent="0" />
        <mxCell id="9zaaFtLtMMzMZcWrU0hJ-1" value="PRODUTO" style="rounded=0;whiteSpace=wrap;html=1;" vertex="1" parent="1">
          <mxGeometry x="120" y="140" width="120" height="60" as="geometry" />
        </mxCell>
        <mxCell id="9zaaFtLtMMzMZcWrU0hJ-2" value="Descrição" style="ellipse;whiteSpace=wrap;html=1;" vertex="1" parent="1">
          <mxGeometry x="50" y="80" width="90" height="50" as="geometry" />
        </mxCell>
        <mxCell id="9zaaFtLtMMzMZcWrU0hJ-3" value="Preço" style="ellipse;whiteSpace=wrap;html=1;" vertex="1" parent="1">
          <mxGeometry x="130" y="20" width="90" height="50" as="geometry" />
        </mxCell>
        <mxCell id="9zaaFtLtMMzMZcWrU0hJ-4" value="Quantidade" style="ellipse;whiteSpace=wrap;html=1;" vertex="1" parent="1">
          <mxGeometry x="220" y="70" width="90" height="50" as="geometry" />
        </mxCell>
        <mxCell id="9zaaFtLtMMzMZcWrU0hJ-5" value="Localização" style="ellipse;whiteSpace=wrap;html=1;" vertex="1" parent="1">
          <mxGeometry x="40" y="380" width="90" height="50" as="geometry" />
        </mxCell>
        <mxCell id="9zaaFtLtMMzMZcWrU0hJ-7" value="" style="ellipse;whiteSpace=wrap;html=1;" vertex="1" parent="1">
          <mxGeometry x="230" y="370" width="90" height="50" as="geometry" />
        </mxCell>
        <mxCell id="9zaaFtLtMMzMZcWrU0hJ-8" value="LOJA" style="rounded=0;whiteSpace=wrap;html=1;" vertex="1" parent="1">
          <mxGeometry x="120" y="290" width="120" height="60" as="geometry" />
        </mxCell>
        <mxCell id="9zaaFtLtMMzMZcWrU0hJ-9" value="" style="ellipse;whiteSpace=wrap;html=1;" vertex="1" parent="1">
          <mxGeometry x="135" y="410" width="90" height="50" as="geometry" />
        </mxCell>
        <mxCell id="9zaaFtLtMMzMZcWrU0hJ-10" value="CLIENTE" style="rounded=0;whiteSpace=wrap;html=1;" vertex="1" parent="1">
          <mxGeometry x="560" y="140" width="120" height="60" as="geometry" />
        </mxCell>
        <mxCell id="9zaaFtLtMMzMZcWrU0hJ-11" value="Dados de compra" style="ellipse;whiteSpace=wrap;html=1;" vertex="1" parent="1">
          <mxGeometry x="480" y="80" width="90" height="50" as="geometry" />
        </mxCell>
        <mxCell id="9zaaFtLtMMzMZcWrU0hJ-12" value="Dados do cliente" style="ellipse;whiteSpace=wrap;html=1;" vertex="1" parent="1">
          <mxGeometry x="660" y="70" width="90" height="50" as="geometry" />
        </mxCell>
        <mxCell id="9zaaFtLtMMzMZcWrU0hJ-13" value="Cadastro" style="ellipse;whiteSpace=wrap;html=1;" vertex="1" parent="1">
          <mxGeometry x="560" y="30" width="90" height="50" as="geometry" />
        </mxCell>
        <mxCell id="9zaaFtLtMMzMZcWrU0hJ-14" value="FUNCIONÁRIO" style="rounded=0;whiteSpace=wrap;html=1;" vertex="1" parent="1">
          <mxGeometry x="560" y="300" width="120" height="60" as="geometry" />
        </mxCell>
        <mxCell id="9zaaFtLtMMzMZcWrU0hJ-15" value="Horário de entrada e saída" style="ellipse;whiteSpace=wrap;html=1;" vertex="1" parent="1">
          <mxGeometry x="480" y="380" width="90" height="50" as="geometry" />
        </mxCell>
        <mxCell id="9zaaFtLtMMzMZcWrU0hJ-16" value="Cadastrto" style="ellipse;whiteSpace=wrap;html=1;" vertex="1" parent="1">
          <mxGeometry x="590" y="410" width="90" height="50" as="geometry" />
        </mxCell>
        <mxCell id="9zaaFtLtMMzMZcWrU0hJ-17" value="" style="ellipse;whiteSpace=wrap;html=1;" vertex="1" parent="1">
          <mxGeometry x="690" y="370" width="90" height="50" as="geometry" />
        </mxCell>
        <mxCell id="9zaaFtLtMMzMZcWrU0hJ-18" value="" style="rhombus;whiteSpace=wrap;html=1;" vertex="1" parent="1">
          <mxGeometry x="140" y="220" width="80" height="50" as="geometry" />
        </mxCell>
        <mxCell id="9zaaFtLtMMzMZcWrU0hJ-19" value="sistema" style="rhombus;whiteSpace=wrap;html=1;" vertex="1" parent="1">
          <mxGeometry x="360" y="310" width="80" height="50" as="geometry" />
        </mxCell>
        <mxCell id="9zaaFtLtMMzMZcWrU0hJ-20" value="compra" style="rhombus;whiteSpace=wrap;html=1;" vertex="1" parent="1">
          <mxGeometry x="350" y="145" width="80" height="50" as="geometry" />
        </mxCell>
        <mxCell id="9zaaFtLtMMzMZcWrU0hJ-21" value="" style="rhombus;whiteSpace=wrap;html=1;" vertex="1" parent="1">
          <mxGeometry x="580" y="220" width="80" height="50" as="geometry" />
        </mxCell>
        <mxCell id="9zaaFtLtMMzMZcWrU0hJ-23" value="" style="endArrow=none;html=1;" edge="1" parent="1">
          <mxGeometry width="50" height="50" relative="1" as="geometry">
            <mxPoint x="240" y="140" as="sourcePoint" />
            <mxPoint x="260" y="120" as="targetPoint" />
          </mxGeometry>
        </mxCell>
        <mxCell id="9zaaFtLtMMzMZcWrU0hJ-24" value="" style="endArrow=none;html=1;" edge="1" parent="1">
          <mxGeometry width="50" height="50" relative="1" as="geometry">
            <mxPoint x="174.5" y="140" as="sourcePoint" />
            <mxPoint x="174.5" y="70" as="targetPoint" />
          </mxGeometry>
        </mxCell>
        <mxCell id="9zaaFtLtMMzMZcWrU0hJ-25" value="" style="endArrow=none;html=1;" edge="1" parent="1">
          <mxGeometry width="50" height="50" relative="1" as="geometry">
            <mxPoint x="120" y="140" as="sourcePoint" />
            <mxPoint x="110" y="130" as="targetPoint" />
          </mxGeometry>
        </mxCell>
        <mxCell id="9zaaFtLtMMzMZcWrU0hJ-26" value="" style="endArrow=none;html=1;exitX=0.7;exitY=0.06;exitDx=0;exitDy=0;exitPerimeter=0;" edge="1" parent="1" source="9zaaFtLtMMzMZcWrU0hJ-5">
          <mxGeometry width="50" height="50" relative="1" as="geometry">
            <mxPoint x="110" y="380" as="sourcePoint" />
            <mxPoint x="140" y="350" as="targetPoint" />
          </mxGeometry>
        </mxCell>
        <mxCell id="9zaaFtLtMMzMZcWrU0hJ-27" value="" style="endArrow=none;html=1;entryX=0.567;entryY=1.017;entryDx=0;entryDy=0;entryPerimeter=0;" edge="1" parent="1" target="9zaaFtLtMMzMZcWrU0hJ-8">
          <mxGeometry width="50" height="50" relative="1" as="geometry">
            <mxPoint x="188" y="410" as="sourcePoint" />
            <mxPoint x="196" y="360" as="targetPoint" />
          </mxGeometry>
        </mxCell>
        <mxCell id="9zaaFtLtMMzMZcWrU0hJ-28" value="" style="endArrow=none;html=1;entryX=0.256;entryY=0.04;entryDx=0;entryDy=0;entryPerimeter=0;" edge="1" parent="1" target="9zaaFtLtMMzMZcWrU0hJ-7">
          <mxGeometry width="50" height="50" relative="1" as="geometry">
            <mxPoint x="240" y="350" as="sourcePoint" />
            <mxPoint x="260" y="380" as="targetPoint" />
          </mxGeometry>
        </mxCell>
        <mxCell id="9zaaFtLtMMzMZcWrU0hJ-29" value="" style="endArrow=none;html=1;entryX=0.075;entryY=1.017;entryDx=0;entryDy=0;entryPerimeter=0;exitX=0.744;exitY=0.06;exitDx=0;exitDy=0;exitPerimeter=0;" edge="1" parent="1" source="9zaaFtLtMMzMZcWrU0hJ-15" target="9zaaFtLtMMzMZcWrU0hJ-14">
          <mxGeometry width="50" height="50" relative="1" as="geometry">
            <mxPoint x="550" y="380" as="sourcePoint" />
            <mxPoint x="570" y="370" as="targetPoint" />
          </mxGeometry>
        </mxCell>
        <mxCell id="9zaaFtLtMMzMZcWrU0hJ-31" value="" style="endArrow=none;html=1;" edge="1" parent="1">
          <mxGeometry width="50" height="50" relative="1" as="geometry">
            <mxPoint x="630" y="410" as="sourcePoint" />
            <mxPoint x="630" y="360" as="targetPoint" />
          </mxGeometry>
        </mxCell>
        <mxCell id="9zaaFtLtMMzMZcWrU0hJ-32" value="" style="endArrow=none;html=1;exitX=1;exitY=1;exitDx=0;exitDy=0;entryX=0.067;entryY=0.26;entryDx=0;entryDy=0;entryPerimeter=0;" edge="1" parent="1" source="9zaaFtLtMMzMZcWrU0hJ-14" target="9zaaFtLtMMzMZcWrU0hJ-17">
          <mxGeometry width="50" height="50" relative="1" as="geometry">
            <mxPoint x="690" y="310" as="sourcePoint" />
            <mxPoint x="690" y="380" as="targetPoint" />
          </mxGeometry>
        </mxCell>
        <mxCell id="9zaaFtLtMMzMZcWrU0hJ-33" value="" style="endArrow=none;html=1;entryX=0.267;entryY=0.98;entryDx=0;entryDy=0;entryPerimeter=0;" edge="1" parent="1" target="9zaaFtLtMMzMZcWrU0hJ-12">
          <mxGeometry width="50" height="50" relative="1" as="geometry">
            <mxPoint x="660" y="140" as="sourcePoint" />
            <mxPoint x="700" y="100" as="targetPoint" />
          </mxGeometry>
        </mxCell>
        <mxCell id="9zaaFtLtMMzMZcWrU0hJ-35" value="" style="endArrow=none;html=1;exitX=0;exitY=0;exitDx=0;exitDy=0;entryX=0.767;entryY=0.98;entryDx=0;entryDy=0;entryPerimeter=0;" edge="1" parent="1" source="9zaaFtLtMMzMZcWrU0hJ-10" target="9zaaFtLtMMzMZcWrU0hJ-11">
          <mxGeometry width="50" height="50" relative="1" as="geometry">
            <mxPoint x="470" y="170" as="sourcePoint" />
            <mxPoint x="460" y="140" as="targetPoint" />
          </mxGeometry>
        </mxCell>
        <mxCell id="9zaaFtLtMMzMZcWrU0hJ-36" value="" style="endArrow=none;html=1;" edge="1" parent="1">
          <mxGeometry width="50" height="50" relative="1" as="geometry">
            <mxPoint x="610" y="140" as="sourcePoint" />
            <mxPoint x="610" y="80" as="targetPoint" />
          </mxGeometry>
        </mxCell>
      </root>
    </mxGraphModel>
  </diagram>
</mxfile>
